<svg width="1165" height="625" viewBox="0 0 1165 625" fill="none" xmlns="http://www.w3.org/2000/svg">
<line x1="2" y1="1" x2="1165" y2="1" stroke="#D9D9D9" stroke-width="2"/>
<line x1="269" y1="625" x2="269" y2="2" stroke="#D9D9D9" stroke-width="2"/>
<line x1="483" y1="625" x2="483" y2="2" stroke="#D9D9D9" stroke-width="2"/>
<line x1="697" y1="625" x2="697" y2="2" stroke="#D9D9D9" stroke-width="2"/>
<line x1="911" y1="625" x2="911" y2="2" stroke="#D9D9D9" stroke-width="2"/>
<line x1="1164" y1="625" x2="1164" y2="2" stroke="#D9D9D9" stroke-width="2"/>
<line x1="1" y1="625" x2="1" y2="2" stroke="#D9D9D9" stroke-width="2"/>
<line x1="2" y1="90" x2="1165" y2="90" stroke="#D9D9D9" stroke-width="2"/>
<line x1="2" y1="535" x2="1165" y2="535" stroke="#D9D9D9" stroke-width="2"/>
<line x1="2" y1="624" x2="1165" y2="624" stroke="#D9D9D9" stroke-width="2"/>
<line x1="2" y1="357" x2="1165" y2="357" stroke="#D9D9D9" stroke-width="2"/>
<line x1="2" y1="446" x2="1165" y2="446" stroke="#D9D9D9" stroke-width="2"/>
<line x1="2" y1="179" x2="1165" y2="179" stroke="#D9D9D9" stroke-width="2"/>
<line x1="2" y1="268" x2="1165" y2="268" stroke="#D9D9D9" stroke-width="2"/>
<path d="M67.36 40V54H69.1V48.62H72.74C75.54 48.62 77.38 46.92 77.38 44.3C77.38 41.68 75.54 40 72.74 40H67.36ZM69.1 41.6H72.6C74.44 41.6 75.6 42.64 75.6 44.3C75.6 45.96 74.42 47.02 72.58 47.02H69.1V41.6ZM83.715 43.8C81.895 43.8 81.115 44.56 80.635 45.34L80.415 43.8H78.995V54H80.635V48.8C80.635 47.18 81.215 45.4 83.355 45.4H84.175V43.8H83.715ZM89.7888 54.12C92.7688 54.12 94.8488 52 94.8488 48.9C94.8488 45.8 92.7688 43.68 89.7888 43.68C86.8088 43.68 84.7288 45.8 84.7288 48.9C84.7288 52 86.8088 54.12 89.7888 54.12ZM89.7888 52.66C87.7688 52.66 86.4088 51.08 86.4088 48.9C86.4088 46.72 87.7688 45.14 89.7888 45.14C91.8088 45.14 93.1688 46.72 93.1688 48.9C93.1688 51.08 91.8088 52.66 89.7888 52.66ZM104.769 40V45.36C104.149 44.38 102.989 43.68 101.269 43.68C98.4494 43.68 96.3694 45.78 96.3694 48.9C96.3694 52.22 98.4494 54.12 101.269 54.12C102.989 54.12 104.089 53.3 104.769 52.36L104.989 54H106.409V40H104.769ZM101.429 52.66C99.4094 52.66 98.0494 51.12 98.0494 48.9C98.0494 46.68 99.4094 45.14 101.429 45.14C103.429 45.14 104.789 46.7 104.789 48.94C104.789 51.12 103.429 52.66 101.429 52.66ZM115.783 43.8V48.9C115.783 51.2 114.663 52.62 112.803 52.62C111.103 52.62 110.143 51.5 110.143 49.38V43.8H108.503V49.48C108.503 52.86 110.283 54.12 112.523 54.12C114.203 54.12 115.183 53.4 115.783 52.64L116.003 54H117.423V43.8H115.783ZM128.759 50.48H127.119C126.819 51.82 125.759 52.66 124.259 52.66C122.299 52.66 120.979 51.1 120.979 48.88C120.979 46.66 122.299 45.14 124.259 45.14C125.719 45.14 126.779 45.98 127.099 47.28H128.759C128.359 45.08 126.759 43.68 124.319 43.68C121.319 43.68 119.299 45.76 119.299 48.88C119.299 52 121.279 54.12 124.259 54.12C126.699 54.12 128.339 52.72 128.759 50.48ZM131.335 51.34C131.335 53.14 132.035 54 133.995 54H135.875V52.5H134.095C133.275 52.5 132.975 52.18 132.975 51.32V45.3H135.555V43.8H132.975V40.94H131.335V43.8H129.495V45.3H131.335V51.34ZM142.516 54H144.216V43.2L151.736 54H153.336V40H151.636V50.8L144.116 40H142.516V54ZM164.851 52.5C164.431 52.5 164.171 52.26 164.171 51.76V47.36C164.171 44.98 162.671 43.68 160.071 43.68C157.611 43.68 155.991 44.86 155.751 46.86H157.391C157.591 45.82 158.551 45.14 159.991 45.14C161.591 45.14 162.531 45.94 162.531 47.26V47.96H159.531C156.851 47.96 155.431 49.1 155.431 51.14C155.431 53 156.951 54.12 159.191 54.12C160.951 54.12 161.971 53.34 162.611 52.42C162.631 53.42 163.091 54 164.451 54H165.351V52.5H164.851ZM162.531 49.84C162.531 51.54 161.351 52.72 159.311 52.72C157.951 52.72 157.091 52.04 157.091 51.04C157.091 49.88 157.911 49.34 159.371 49.34H162.531V49.84ZM177.992 43.68C176.172 43.68 175.072 44.52 174.452 45.62C173.872 44.32 172.652 43.68 171.232 43.68C169.652 43.68 168.792 44.46 168.252 45.2L168.032 43.8H166.612V54H168.252V48.62C168.252 46.58 169.272 45.18 170.952 45.18C172.512 45.18 173.412 46.22 173.412 48.22V54H175.052V48.54C175.052 46.46 176.092 45.18 177.792 45.18C179.332 45.18 180.212 46.22 180.212 48.22V54H181.852V48.12C181.852 44.9 180.112 43.68 177.992 43.68ZM183.596 48.9C183.596 52.02 185.596 54.12 188.656 54.12C191.016 54.12 192.696 52.62 193.096 50.58H191.436C191.096 51.9 189.976 52.66 188.536 52.66C186.636 52.66 185.376 51.34 185.316 49.36V49.22H193.236C193.256 48.98 193.276 48.74 193.276 48.52C193.196 45.5 191.236 43.68 188.436 43.68C185.556 43.68 183.596 45.76 183.596 48.9ZM185.416 47.86C185.576 46.2 186.956 45.12 188.456 45.12C190.156 45.12 191.416 46.1 191.576 47.86H185.416Z" fill="black"/>
<path d="M66.84 137.42C66.94 140.18 68.98 142.12 72.32 142.12C75.26 142.12 77.3 140.42 77.3 138C77.3 135.28 74.96 134.52 72.68 134.14C70.58 133.78 68.88 133.44 68.88 131.76C68.88 130.26 70.1 129.44 71.92 129.44C73.8 129.44 75.16 130.52 75.36 132.14H77.08C76.92 129.62 74.92 127.86 71.92 127.86C69.08 127.86 67.14 129.48 67.14 131.86C67.14 134.58 69.46 135.32 71.72 135.7C73.84 136.06 75.56 136.42 75.56 138.16C75.56 139.68 74.22 140.54 72.34 140.54C70.2 140.54 68.7 139.3 68.56 137.42H66.84ZM86.4084 131.8V136.9C86.4084 139.2 85.2884 140.62 83.4284 140.62C81.7284 140.62 80.7684 139.5 80.7684 137.38V131.8H79.1284V137.48C79.1284 140.86 80.9084 142.12 83.1484 142.12C84.8284 142.12 85.8084 141.4 86.4084 140.64L86.6284 142H88.0484V131.8H86.4084ZM101.664 131.68C99.8441 131.68 98.7441 132.52 98.1241 133.62C97.5441 132.32 96.3241 131.68 94.9041 131.68C93.3241 131.68 92.4641 132.46 91.9241 133.2L91.7041 131.8H90.2841V142H91.9241V136.62C91.9241 134.58 92.9441 133.18 94.6241 133.18C96.1841 133.18 97.0841 134.22 97.0841 136.22V142H98.7241V136.54C98.7241 134.46 99.7641 133.18 101.464 133.18C103.004 133.18 103.884 134.22 103.884 136.22V142H105.524V136.12C105.524 132.9 103.784 131.68 101.664 131.68ZM119.008 131.68C117.188 131.68 116.088 132.52 115.468 133.62C114.888 132.32 113.668 131.68 112.248 131.68C110.668 131.68 109.808 132.46 109.268 133.2L109.048 131.8H107.628V142H109.268V136.62C109.268 134.58 110.288 133.18 111.968 133.18C113.528 133.18 114.428 134.22 114.428 136.22V142H116.068V136.54C116.068 134.46 117.108 133.18 118.808 133.18C120.348 133.18 121.228 134.22 121.228 136.22V142H122.868V136.12C122.868 132.9 121.128 131.68 119.008 131.68ZM124.612 136.9C124.612 140.02 126.612 142.12 129.672 142.12C132.032 142.12 133.712 140.62 134.112 138.58H132.452C132.112 139.9 130.992 140.66 129.552 140.66C127.652 140.66 126.392 139.34 126.332 137.36V137.22H134.252C134.272 136.98 134.292 136.74 134.292 136.52C134.212 133.5 132.252 131.68 129.452 131.68C126.572 131.68 124.612 133.76 124.612 136.9ZM126.432 135.86C126.592 134.2 127.972 133.12 129.472 133.12C131.172 133.12 132.432 134.1 132.592 135.86H126.432ZM140.883 131.8C139.063 131.8 138.283 132.56 137.803 133.34L137.583 131.8H136.163V142H137.803V136.8C137.803 135.18 138.383 133.4 140.523 133.4H141.343V131.8H140.883ZM144.13 127.88C143.29 127.88 142.81 128.38 142.81 129.04C142.81 129.76 143.27 130.12 143.87 130.12C144.11 130.12 144.39 130.04 144.55 129.88C144.57 129.96 144.57 130.04 144.57 130.14C144.57 130.82 144.17 131.72 142.89 131.74V132.68C144.65 132.64 145.71 131.62 145.71 129.92C145.71 128.82 145.11 127.88 144.13 127.88ZM146.799 138.64C146.839 140.88 148.639 142.12 151.239 142.12C153.479 142.12 155.279 140.94 155.279 139.04C155.279 136.78 153.419 136.3 151.139 136.02C149.699 135.84 148.639 135.74 148.639 134.62C148.639 133.68 149.579 133.06 150.959 133.06C152.339 133.06 153.319 133.86 153.439 134.9H155.079C154.919 132.78 153.259 131.68 150.959 131.66C148.719 131.64 147.019 132.88 147.019 134.74C147.019 136.86 148.839 137.28 151.059 137.56C152.559 137.74 153.659 137.88 153.659 139.16C153.659 140.1 152.659 140.72 151.239 140.72C149.579 140.72 148.499 139.84 148.439 138.64H146.799ZM162.614 128V142H171.794V140.4H164.354V135.68H170.334V134.08H164.354V129.6H171.534V128H162.614ZM171.92 131.8L175.74 142H177.72L181.54 131.8H179.82L176.76 140.14L173.68 131.8H171.92ZM182.014 136.9C182.014 140.02 184.014 142.12 187.074 142.12C189.434 142.12 191.114 140.62 191.514 138.58H189.854C189.514 139.9 188.394 140.66 186.954 140.66C185.054 140.66 183.794 139.34 183.734 137.36V137.22H191.654C191.674 136.98 191.694 136.74 191.694 136.52C191.614 133.5 189.654 131.68 186.854 131.68C183.974 131.68 182.014 133.76 182.014 136.9ZM183.834 135.86C183.994 134.2 185.374 133.12 186.874 133.12C188.574 133.12 189.834 134.1 189.994 135.86H183.834Z" fill="black"/>
<path d="M66.18 218L71.22 232H73.32L78.36 218H76.56L72.3 229.94L68.02 218H66.18ZM87.3905 230.5C86.9705 230.5 86.7105 230.26 86.7105 229.76V225.36C86.7105 222.98 85.2105 221.68 82.6105 221.68C80.1505 221.68 78.5305 222.86 78.2905 224.86H79.9305C80.1305 223.82 81.0905 223.14 82.5305 223.14C84.1305 223.14 85.0705 223.94 85.0705 225.26V225.96H82.0705C79.3905 225.96 77.9705 227.1 77.9705 229.14C77.9705 231 79.4905 232.12 81.7305 232.12C83.4905 232.12 84.5105 231.34 85.1505 230.42C85.1705 231.42 85.6305 232 86.9905 232H87.8905V230.5H87.3905ZM85.0705 227.84C85.0705 229.54 83.8905 230.72 81.8505 230.72C80.4905 230.72 79.6305 230.04 79.6305 229.04C79.6305 227.88 80.4505 227.34 81.9105 227.34H85.0705V227.84ZM97.4113 221.8L97.1913 223.56C96.5513 222.42 95.4113 221.68 93.6913 221.68C90.8713 221.68 88.7913 223.78 88.7913 226.9C88.7913 230.22 90.8713 232.12 93.6913 232.12C95.4113 232.12 96.5113 231.4 97.1913 230.24V231.44C97.1913 233.66 96.0313 234.66 93.8913 234.66C92.1913 234.66 91.0513 233.94 90.7713 232.66H89.0913C89.3512 234.9 91.1713 236.12 93.7713 236.12C97.2713 236.12 98.8313 234.44 98.8313 231.5V221.8H97.4113ZM93.8513 230.66C91.8313 230.66 90.4713 229.12 90.4713 226.9C90.4713 224.68 91.8313 223.14 93.8513 223.14C95.8513 223.14 97.2113 224.7 97.2113 226.94C97.2113 229.12 95.8513 230.66 93.8513 230.66ZM101.885 217.86C101.285 217.86 100.825 218.3 100.825 218.92C100.825 219.54 101.285 219.98 101.885 219.98C102.485 219.98 102.945 219.54 102.945 218.92C102.945 218.3 102.485 217.86 101.885 217.86ZM101.065 221.8V232H102.705V221.8H101.065ZM104.592 228.64C104.632 230.88 106.432 232.12 109.032 232.12C111.272 232.12 113.072 230.94 113.072 229.04C113.072 226.78 111.212 226.3 108.932 226.02C107.492 225.84 106.432 225.74 106.432 224.62C106.432 223.68 107.372 223.06 108.752 223.06C110.132 223.06 111.112 223.86 111.232 224.9H112.872C112.712 222.78 111.052 221.68 108.752 221.66C106.512 221.64 104.812 222.88 104.812 224.74C104.812 226.86 106.632 227.28 108.852 227.56C110.352 227.74 111.452 227.88 111.452 229.16C111.452 230.1 110.452 230.72 109.032 230.72C107.372 230.72 106.292 229.84 106.232 228.64H104.592ZM115.753 217.86C115.153 217.86 114.693 218.3 114.693 218.92C114.693 219.54 115.153 219.98 115.753 219.98C116.353 219.98 116.813 219.54 116.813 218.92C116.813 218.3 116.353 217.86 115.753 217.86ZM114.933 221.8V232H116.573V221.8H114.933ZM118.819 218V232H120.459V218H118.819Z" fill="black"/>
<path d="M71.6348 319L66.0879 304.684H68.1387L71.8594 315.084C72.1589 315.917 72.4095 316.699 72.6113 317.428C72.8327 316.646 73.0898 315.865 73.3828 315.084L77.25 304.684H79.1836L73.5781 319H71.6348ZM80.9414 319V304.684H82.8359V310.562H90.2773V304.684H92.1719V319H90.2773V312.252H82.8359V319H80.9414ZM100.941 319V304.684H111.293V306.373H102.836V310.758H110.756V312.438H102.836V317.311H111.625V319H100.941ZM113.314 315.904L115.053 315.631C115.15 316.327 115.421 316.861 115.863 317.232C116.312 317.604 116.938 317.789 117.738 317.789C118.546 317.789 119.145 317.626 119.535 317.301C119.926 316.969 120.121 316.581 120.121 316.139C120.121 315.742 119.949 315.429 119.604 315.201C119.363 315.045 118.764 314.846 117.807 314.605C116.518 314.28 115.622 314 115.121 313.766C114.626 313.525 114.249 313.196 113.988 312.779C113.734 312.356 113.607 311.891 113.607 311.383C113.607 310.921 113.712 310.494 113.92 310.104C114.135 309.706 114.424 309.378 114.789 309.117C115.062 308.915 115.434 308.746 115.902 308.609C116.378 308.466 116.885 308.395 117.426 308.395C118.24 308.395 118.952 308.512 119.564 308.746C120.183 308.98 120.639 309.299 120.932 309.703C121.225 310.1 121.426 310.634 121.537 311.305L119.818 311.539C119.74 311.005 119.512 310.589 119.135 310.289C118.764 309.99 118.236 309.84 117.553 309.84C116.745 309.84 116.169 309.973 115.824 310.24C115.479 310.507 115.307 310.82 115.307 311.178C115.307 311.406 115.378 311.611 115.521 311.793C115.665 311.982 115.889 312.138 116.195 312.262C116.371 312.327 116.889 312.477 117.748 312.711C118.992 313.043 119.857 313.316 120.346 313.531C120.84 313.74 121.228 314.046 121.508 314.449C121.788 314.853 121.928 315.354 121.928 315.953C121.928 316.539 121.755 317.092 121.41 317.613C121.072 318.128 120.58 318.528 119.936 318.814C119.291 319.094 118.562 319.234 117.748 319.234C116.4 319.234 115.372 318.954 114.662 318.395C113.959 317.835 113.51 317.005 113.314 315.904ZM123.314 315.904L125.053 315.631C125.15 316.327 125.421 316.861 125.863 317.232C126.312 317.604 126.938 317.789 127.738 317.789C128.546 317.789 129.145 317.626 129.535 317.301C129.926 316.969 130.121 316.581 130.121 316.139C130.121 315.742 129.949 315.429 129.604 315.201C129.363 315.045 128.764 314.846 127.807 314.605C126.518 314.28 125.622 314 125.121 313.766C124.626 313.525 124.249 313.196 123.988 312.779C123.734 312.356 123.607 311.891 123.607 311.383C123.607 310.921 123.712 310.494 123.92 310.104C124.135 309.706 124.424 309.378 124.789 309.117C125.062 308.915 125.434 308.746 125.902 308.609C126.378 308.466 126.885 308.395 127.426 308.395C128.24 308.395 128.952 308.512 129.564 308.746C130.183 308.98 130.639 309.299 130.932 309.703C131.225 310.1 131.426 310.634 131.537 311.305L129.818 311.539C129.74 311.005 129.512 310.589 129.135 310.289C128.764 309.99 128.236 309.84 127.553 309.84C126.745 309.84 126.169 309.973 125.824 310.24C125.479 310.507 125.307 310.82 125.307 311.178C125.307 311.406 125.378 311.611 125.521 311.793C125.665 311.982 125.889 312.138 126.195 312.262C126.371 312.327 126.889 312.477 127.748 312.711C128.992 313.043 129.857 313.316 130.346 313.531C130.84 313.74 131.228 314.046 131.508 314.449C131.788 314.853 131.928 315.354 131.928 315.953C131.928 316.539 131.755 317.092 131.41 317.613C131.072 318.128 130.58 318.528 129.936 318.814C129.291 319.094 128.562 319.234 127.748 319.234C126.4 319.234 125.372 318.954 124.662 318.395C123.959 317.835 123.51 317.005 123.314 315.904ZM141.117 315.66L142.934 315.885C142.647 316.946 142.117 317.77 141.342 318.355C140.567 318.941 139.577 319.234 138.373 319.234C136.856 319.234 135.652 318.769 134.76 317.838C133.874 316.9 133.432 315.589 133.432 313.902C133.432 312.158 133.881 310.803 134.779 309.84C135.678 308.876 136.843 308.395 138.275 308.395C139.662 308.395 140.795 308.867 141.674 309.811C142.553 310.755 142.992 312.083 142.992 313.795C142.992 313.899 142.989 314.055 142.982 314.264H135.248C135.313 315.403 135.635 316.275 136.215 316.881C136.794 317.486 137.517 317.789 138.383 317.789C139.027 317.789 139.577 317.62 140.033 317.281C140.489 316.943 140.85 316.402 141.117 315.66ZM135.346 312.818H141.137C141.059 311.946 140.837 311.292 140.473 310.855C139.913 310.178 139.187 309.84 138.295 309.84C137.488 309.84 136.807 310.11 136.254 310.65C135.707 311.191 135.404 311.913 135.346 312.818ZM144.447 315.904L146.186 315.631C146.283 316.327 146.553 316.861 146.996 317.232C147.445 317.604 148.07 317.789 148.871 317.789C149.678 317.789 150.277 317.626 150.668 317.301C151.059 316.969 151.254 316.581 151.254 316.139C151.254 315.742 151.081 315.429 150.736 315.201C150.495 315.045 149.896 314.846 148.939 314.605C147.65 314.28 146.755 314 146.254 313.766C145.759 313.525 145.382 313.196 145.121 312.779C144.867 312.356 144.74 311.891 144.74 311.383C144.74 310.921 144.844 310.494 145.053 310.104C145.268 309.706 145.557 309.378 145.922 309.117C146.195 308.915 146.566 308.746 147.035 308.609C147.51 308.466 148.018 308.395 148.559 308.395C149.372 308.395 150.085 308.512 150.697 308.746C151.316 308.98 151.771 309.299 152.064 309.703C152.357 310.1 152.559 310.634 152.67 311.305L150.951 311.539C150.873 311.005 150.645 310.589 150.268 310.289C149.896 309.99 149.369 309.84 148.686 309.84C147.878 309.84 147.302 309.973 146.957 310.24C146.612 310.507 146.439 310.82 146.439 311.178C146.439 311.406 146.511 311.611 146.654 311.793C146.798 311.982 147.022 312.138 147.328 312.262C147.504 312.327 148.021 312.477 148.881 312.711C150.124 313.043 150.99 313.316 151.479 313.531C151.973 313.74 152.361 314.046 152.641 314.449C152.921 314.853 153.061 315.354 153.061 315.953C153.061 316.539 152.888 317.092 152.543 317.613C152.204 318.128 151.713 318.528 151.068 318.814C150.424 319.094 149.695 319.234 148.881 319.234C147.533 319.234 146.505 318.954 145.795 318.395C145.092 317.835 144.643 317.005 144.447 315.904ZM155.15 319V308.629H156.732V310.104C157.494 308.964 158.594 308.395 160.033 308.395C160.658 308.395 161.231 308.508 161.752 308.736C162.279 308.958 162.673 309.251 162.934 309.615C163.194 309.98 163.376 310.413 163.48 310.914C163.546 311.24 163.578 311.809 163.578 312.623V319H161.82V312.691C161.82 311.975 161.752 311.441 161.615 311.09C161.479 310.732 161.234 310.449 160.883 310.24C160.538 310.025 160.131 309.918 159.662 309.918C158.913 309.918 158.266 310.156 157.719 310.631C157.178 311.106 156.908 312.008 156.908 313.336V319H155.15ZM170.121 317.428L170.375 318.98C169.88 319.085 169.438 319.137 169.047 319.137C168.409 319.137 167.914 319.036 167.562 318.834C167.211 318.632 166.964 318.368 166.82 318.043C166.677 317.711 166.605 317.018 166.605 315.963V309.996H165.316V308.629H166.605V306.061L168.354 305.006V308.629H170.121V309.996H168.354V316.061C168.354 316.562 168.383 316.884 168.441 317.027C168.507 317.171 168.607 317.285 168.744 317.369C168.887 317.454 169.089 317.496 169.35 317.496C169.545 317.496 169.802 317.473 170.121 317.428ZM171.859 306.705V304.684H173.617V306.705H171.859ZM171.859 319V308.629H173.617V319H171.859ZM183.07 317.721C182.419 318.274 181.791 318.665 181.186 318.893C180.587 319.12 179.942 319.234 179.252 319.234C178.113 319.234 177.237 318.958 176.625 318.404C176.013 317.844 175.707 317.132 175.707 316.266C175.707 315.758 175.821 315.296 176.049 314.879C176.283 314.456 176.586 314.117 176.957 313.863C177.335 313.609 177.758 313.417 178.227 313.287C178.572 313.196 179.092 313.108 179.789 313.023C181.208 312.854 182.253 312.652 182.924 312.418C182.93 312.177 182.934 312.024 182.934 311.959C182.934 311.243 182.768 310.738 182.436 310.445C181.986 310.048 181.319 309.85 180.434 309.85C179.607 309.85 178.995 309.996 178.598 310.289C178.207 310.576 177.917 311.087 177.729 311.822L176.01 311.588C176.166 310.852 176.423 310.26 176.781 309.811C177.139 309.355 177.657 309.007 178.334 308.766C179.011 308.518 179.796 308.395 180.688 308.395C181.573 308.395 182.292 308.499 182.846 308.707C183.399 308.915 183.806 309.179 184.066 309.498C184.327 309.811 184.509 310.208 184.613 310.689C184.672 310.989 184.701 311.529 184.701 312.311V314.654C184.701 316.288 184.737 317.324 184.809 317.76C184.887 318.189 185.036 318.603 185.258 319H183.422C183.24 318.635 183.122 318.209 183.07 317.721ZM182.924 313.795C182.286 314.055 181.329 314.277 180.053 314.459C179.33 314.563 178.819 314.68 178.52 314.811C178.22 314.941 177.989 315.133 177.826 315.387C177.663 315.634 177.582 315.911 177.582 316.217C177.582 316.686 177.758 317.076 178.109 317.389C178.467 317.701 178.988 317.857 179.672 317.857C180.349 317.857 180.951 317.711 181.479 317.418C182.006 317.118 182.393 316.712 182.641 316.197C182.829 315.8 182.924 315.214 182.924 314.439V313.795ZM187.396 319V304.684H189.154V319H187.396ZM191.186 315.904L192.924 315.631C193.021 316.327 193.292 316.861 193.734 317.232C194.184 317.604 194.809 317.789 195.609 317.789C196.417 317.789 197.016 317.626 197.406 317.301C197.797 316.969 197.992 316.581 197.992 316.139C197.992 315.742 197.82 315.429 197.475 315.201C197.234 315.045 196.635 314.846 195.678 314.605C194.389 314.28 193.493 314 192.992 313.766C192.497 313.525 192.12 313.196 191.859 312.779C191.605 312.356 191.479 311.891 191.479 311.383C191.479 310.921 191.583 310.494 191.791 310.104C192.006 309.706 192.296 309.378 192.66 309.117C192.934 308.915 193.305 308.746 193.773 308.609C194.249 308.466 194.757 308.395 195.297 308.395C196.111 308.395 196.824 308.512 197.436 308.746C198.054 308.98 198.51 309.299 198.803 309.703C199.096 310.1 199.298 310.634 199.408 311.305L197.689 311.539C197.611 311.005 197.383 310.589 197.006 310.289C196.635 309.99 196.107 309.84 195.424 309.84C194.617 309.84 194.04 309.973 193.695 310.24C193.35 310.507 193.178 310.82 193.178 311.178C193.178 311.406 193.249 311.611 193.393 311.793C193.536 311.982 193.76 312.138 194.066 312.262C194.242 312.327 194.76 312.477 195.619 312.711C196.863 313.043 197.729 313.316 198.217 313.531C198.712 313.74 199.099 314.046 199.379 314.449C199.659 314.853 199.799 315.354 199.799 315.953C199.799 316.539 199.626 317.092 199.281 317.613C198.943 318.128 198.451 318.528 197.807 318.814C197.162 319.094 196.433 319.234 195.619 319.234C194.271 319.234 193.243 318.954 192.533 318.395C191.83 317.835 191.381 317.005 191.186 315.904Z" fill="black"/>
<path d="M67.36 395.98V410H69.1V403.68H76.34V410H78.08V395.98H76.34V402.08H69.1V395.98H67.36ZM85.2575 410.12C88.2375 410.12 90.3175 408 90.3175 404.9C90.3175 401.8 88.2375 399.68 85.2575 399.68C82.2775 399.68 80.1975 401.8 80.1975 404.9C80.1975 408 82.2775 410.12 85.2575 410.12ZM85.2575 408.66C83.2375 408.66 81.8775 407.08 81.8775 404.9C81.8775 402.72 83.2375 401.14 85.2575 401.14C87.2775 401.14 88.6375 402.72 88.6375 404.9C88.6375 407.08 87.2775 408.66 85.2575 408.66ZM97.1981 399.68C95.4781 399.68 94.4381 400.4 93.8381 401.18L93.6181 399.8H92.1981V410H93.8381V404.9C93.8381 402.6 94.9981 401.18 96.9181 401.18C98.6981 401.18 99.6781 402.3 99.6781 404.42V410H101.318V404.32C101.318 400.94 99.4981 399.68 97.1981 399.68ZM103.049 404.9C103.049 408.02 105.049 410.12 108.109 410.12C110.469 410.12 112.149 408.62 112.549 406.58H110.889C110.549 407.9 109.429 408.66 107.989 408.66C106.089 408.66 104.829 407.34 104.769 405.36V405.22H112.689C112.709 404.98 112.729 404.74 112.729 404.52C112.649 401.5 110.689 399.68 107.889 399.68C105.009 399.68 103.049 401.76 103.049 404.9ZM104.869 403.86C105.029 402.2 106.409 401.12 107.909 401.12C109.609 401.12 110.869 402.1 111.029 403.86H104.869ZM113.19 399.8L117.19 410.08L116.67 411.3C116.27 412.26 116.13 412.5 115.19 412.5H113.73V414H115.69C117.13 414 117.51 413.36 118.15 411.72L122.85 399.8H121.11L118.07 408.12L114.93 399.8H113.19ZM129.548 396V410H131.288V404.62H134.928C137.728 404.62 139.568 402.92 139.568 400.3C139.568 397.68 137.728 396 134.928 396H129.548ZM131.288 397.6H134.788C136.628 397.6 137.788 398.64 137.788 400.3C137.788 401.96 136.608 403.02 134.768 403.02H131.288V397.6ZM145.355 410.12C148.335 410.12 150.415 408 150.415 404.9C150.415 401.8 148.335 399.68 145.355 399.68C142.375 399.68 140.295 401.8 140.295 404.9C140.295 408 142.375 410.12 145.355 410.12ZM145.355 408.66C143.335 408.66 141.975 407.08 141.975 404.9C141.975 402.72 143.335 401.14 145.355 401.14C147.375 401.14 148.735 402.72 148.735 404.9C148.735 407.08 147.375 408.66 145.355 408.66ZM152.859 407.34C152.859 409.14 153.559 410 155.519 410H157.399V408.5H155.619C154.799 408.5 154.499 408.18 154.499 407.32V401.3H157.079V399.8H154.499V396.94H152.859V399.8H151.019V401.3H152.859V407.34Z" fill="black"/>
<path d="M79.98 497.4C79.38 497.4 79.04 497.22 78.66 496.72C79.64 495.48 80.2 493.86 80.2 492C80.2 487.88 77.46 484.88 73.52 484.88C69.58 484.88 66.84 487.88 66.84 492C66.84 496.12 69.58 499.12 73.52 499.12C75.06 499.12 76.44 498.66 77.52 497.84L77.66 498.04C78.16 498.72 78.72 499 79.78 499H81.06V497.4H79.98ZM73.52 497.52C70.6 497.52 68.62 495.22 68.62 492C68.62 488.78 70.6 486.48 73.52 486.48C76.44 486.48 78.42 488.78 78.42 492C78.42 493.24 78.12 494.36 77.58 495.24L77.14 494.64C76.64 493.96 76.14 493.66 75.2 493.66H73.74V495.26H74.92C75.42 495.26 75.76 495.46 76.14 495.96L76.52 496.48C75.72 497.14 74.7 497.52 73.52 497.52ZM89.3772 488.8V493.9C89.3772 496.2 88.2572 497.62 86.3972 497.62C84.6972 497.62 83.7372 496.5 83.7372 494.38V488.8H82.0972V494.48C82.0972 497.86 83.8772 499.12 86.1172 499.12C87.7972 499.12 88.7772 498.4 89.3772 497.64L89.5972 499H91.0172V488.8H89.3772ZM92.8928 493.9C92.8928 497.02 94.8928 499.12 97.9528 499.12C100.313 499.12 101.993 497.62 102.393 495.58H100.733C100.393 496.9 99.2728 497.66 97.8328 497.66C95.9328 497.66 94.6728 496.34 94.6128 494.36V494.22H102.533C102.553 493.98 102.573 493.74 102.573 493.52C102.493 490.5 100.533 488.68 97.7328 488.68C94.8528 488.68 92.8928 490.76 92.8928 493.9ZM94.7128 492.86C94.8728 491.2 96.2528 490.12 97.7528 490.12C99.4528 490.12 100.713 491.1 100.873 492.86H94.7128ZM104.084 493.9C104.084 497.02 106.084 499.12 109.144 499.12C111.504 499.12 113.184 497.62 113.584 495.58H111.924C111.584 496.9 110.464 497.66 109.024 497.66C107.124 497.66 105.864 496.34 105.804 494.36V494.22H113.724C113.744 493.98 113.764 493.74 113.764 493.52C113.684 490.5 111.724 488.68 108.924 488.68C106.044 488.68 104.084 490.76 104.084 493.9ZM105.904 492.86C106.064 491.2 107.444 490.12 108.944 490.12C110.644 490.12 111.904 491.1 112.064 492.86H105.904ZM120.636 488.68C118.916 488.68 117.876 489.4 117.276 490.18L117.056 488.8H115.636V499H117.276V493.9C117.276 491.6 118.436 490.18 120.356 490.18C122.136 490.18 123.116 491.3 123.116 493.42V499H124.756V493.32C124.756 489.94 122.936 488.68 120.636 488.68ZM131.141 485L136.181 499H138.281L143.321 485H141.521L137.261 496.94L132.981 485H131.141Z" fill="black"/>
<path d="M67.28 574V588H69.58V582.08H75.06V580.1H69.58V576.04H76.22V574H67.28ZM76.6409 582.9C76.6409 586.04 78.6809 588.12 81.9209 588.12C84.4409 588.12 86.1409 586.58 86.5209 584.56H84.3609C84.0609 585.72 83.0809 586.36 81.7809 586.36C80.0609 586.36 79.0009 585.22 78.9009 583.46V583.34H86.6209C86.6609 583.06 86.6809 582.78 86.6809 582.52C86.6209 579.52 84.5809 577.64 81.6209 577.64C78.6609 577.64 76.6409 579.72 76.6409 582.9ZM78.9809 581.78C79.1409 580.3 80.3209 579.38 81.7009 579.38C83.2009 579.38 84.3009 580.24 84.4809 581.78H78.9809ZM100.247 577.64C98.5672 577.64 97.3872 578.38 96.7072 579.5C96.1072 578.18 94.9072 577.64 93.5672 577.64C92.0272 577.66 91.1472 578.34 90.5472 579.12L90.3072 577.76H88.4272V588H90.5872V582.52C90.5872 580.7 91.5072 579.5 92.9872 579.5C94.4072 579.5 95.1672 580.44 95.1672 582.24V588H97.3272V582.46C97.3272 580.62 98.2672 579.5 99.7472 579.5C101.147 579.5 101.887 580.44 101.887 582.24V588H104.067V582.22C104.067 578.8 102.307 577.64 100.247 577.64ZM117.845 577.64C116.165 577.64 114.985 578.38 114.305 579.5C113.705 578.18 112.505 577.64 111.165 577.64C109.625 577.66 108.745 578.34 108.145 579.12L107.905 577.76H106.025V588H108.185V582.52C108.185 580.7 109.105 579.5 110.585 579.5C112.005 579.5 112.765 580.44 112.765 582.24V588H114.925V582.46C114.925 580.62 115.865 579.5 117.345 579.5C118.745 579.5 119.485 580.44 119.485 582.24V588H121.665V582.22C121.665 578.8 119.905 577.64 117.845 577.64ZM123.243 582.9C123.243 586.04 125.283 588.12 128.523 588.12C131.043 588.12 132.743 586.58 133.122 584.56H130.963C130.663 585.72 129.683 586.36 128.383 586.36C126.663 586.36 125.603 585.22 125.502 583.46V583.34H133.223C133.263 583.06 133.283 582.78 133.283 582.52C133.223 579.52 131.183 577.64 128.223 577.64C125.263 577.64 123.243 579.72 123.243 582.9ZM125.583 581.78C125.743 580.3 126.923 579.38 128.303 579.38C129.803 579.38 130.903 580.24 131.083 581.78H125.583ZM140.366 588H144.826C149.166 588 151.886 585.14 151.886 581C151.886 576.84 149.166 574 144.826 574H140.366V588ZM142.666 586V576H144.826C147.886 576 149.526 577.98 149.526 581C149.526 584 147.886 586 144.826 586H142.666ZM153.301 582.9C153.301 586.04 155.341 588.12 158.581 588.12C161.101 588.12 162.801 586.58 163.181 584.56H161.021C160.721 585.72 159.741 586.36 158.441 586.36C156.721 586.36 155.661 585.22 155.561 583.46V583.34H163.281C163.321 583.06 163.341 582.78 163.341 582.52C163.281 579.52 161.241 577.64 158.281 577.64C155.321 577.64 153.301 579.72 153.301 582.9ZM155.641 581.78C155.801 580.3 156.981 579.38 158.361 579.38C159.861 579.38 160.961 580.24 161.141 581.78H155.641ZM170.567 577.64C168.967 577.64 167.907 578.38 167.227 579.3L166.967 577.76H165.087V592H167.247V586.54C167.887 587.48 168.987 588.12 170.587 588.12C173.367 588.12 175.407 586.04 175.407 582.88C175.407 579.6 173.367 577.64 170.567 577.64ZM170.207 586.3C168.407 586.3 167.227 584.88 167.227 582.84C167.227 580.86 168.407 579.48 170.207 579.48C172.007 579.48 173.207 580.86 173.207 582.88C173.207 584.9 172.007 586.3 170.207 586.3ZM177.72 585.22C177.72 587.08 178.56 588 180.5 588H182.58V586.12H180.96C180.18 586.12 179.9 585.8 179.9 585V579.66H182.36V577.76H179.9V574.9H177.72V577.76H175.94V579.66H177.72V585.22ZM183.676 586.76C183.676 587.56 184.256 588.12 185.056 588.12C185.856 588.12 186.456 587.56 186.456 586.76C186.456 585.96 185.856 585.4 185.056 585.4C184.256 585.4 183.676 585.96 183.676 586.76Z" fill="black"/>
<path d="M513.861 48C513.861 52.28 516.481 55.12 520.541 55.12C523.661 55.12 525.861 53.32 526.381 50.42H524.641C524.121 52.38 522.621 53.52 520.461 53.52C517.521 53.52 515.641 51.22 515.641 48C515.641 44.76 517.521 42.48 520.461 42.48C522.581 42.48 524.141 43.62 524.661 45.58H526.401C525.881 42.68 523.641 40.88 520.541 40.88C516.481 40.88 513.861 43.76 513.861 48ZM528.341 41V55H529.981V41H528.341ZM531.867 49.9C531.867 53.02 533.867 55.12 536.927 55.12C539.287 55.12 540.967 53.62 541.367 51.58H539.707C539.367 52.9 538.247 53.66 536.807 53.66C534.907 53.66 533.647 52.34 533.587 50.36V50.22H541.507C541.527 49.98 541.547 49.74 541.547 49.52C541.467 46.5 539.507 44.68 536.707 44.68C533.827 44.68 531.867 46.76 531.867 49.9ZM533.687 48.86C533.847 47.2 535.227 46.12 536.727 46.12C538.427 46.12 539.687 47.1 539.847 48.86H533.687ZM552.459 53.5C552.039 53.5 551.779 53.26 551.779 52.76V48.36C551.779 45.98 550.279 44.68 547.679 44.68C545.219 44.68 543.599 45.86 543.359 47.86H544.999C545.199 46.82 546.159 46.14 547.599 46.14C549.199 46.14 550.139 46.94 550.139 48.26V48.96H547.139C544.459 48.96 543.039 50.1 543.039 52.14C543.039 54 544.559 55.12 546.799 55.12C548.559 55.12 549.579 54.34 550.219 53.42C550.239 54.42 550.699 55 552.059 55H552.959V53.5H552.459ZM550.139 50.84C550.139 52.54 548.959 53.72 546.919 53.72C545.559 53.72 544.699 53.04 544.699 52.04C544.699 50.88 545.519 50.34 546.979 50.34H550.139V50.84ZM559.22 44.68C557.5 44.68 556.46 45.4 555.86 46.18L555.64 44.8H554.22V55H555.86V49.9C555.86 47.6 557.02 46.18 558.94 46.18C560.72 46.18 561.7 47.3 561.7 49.42V55H563.34V49.32C563.34 45.94 561.52 44.68 559.22 44.68ZM570.905 41V55H572.645V41H570.905ZM580.118 44.68C578.398 44.68 577.358 45.4 576.758 46.18L576.538 44.8H575.118V55H576.758V49.9C576.758 47.6 577.918 46.18 579.838 46.18C581.618 46.18 582.598 47.3 582.598 49.42V55H584.238V49.32C584.238 45.94 582.418 44.68 580.118 44.68ZM594.589 44.8L594.369 46.56C593.729 45.42 592.589 44.68 590.869 44.68C588.049 44.68 585.969 46.78 585.969 49.9C585.969 53.22 588.049 55.12 590.869 55.12C592.589 55.12 593.689 54.4 594.369 53.24V54.44C594.369 56.66 593.209 57.66 591.069 57.66C589.369 57.66 588.229 56.94 587.949 55.66H586.269C586.529 57.9 588.349 59.12 590.949 59.12C594.449 59.12 596.009 57.44 596.009 54.5V44.8H594.589ZM591.029 53.66C589.009 53.66 587.649 52.12 587.649 49.9C587.649 47.68 589.009 46.14 591.029 46.14C593.029 46.14 594.389 47.7 594.389 49.94C594.389 52.12 593.029 53.66 591.029 53.66ZM602.963 44.8C601.143 44.8 600.363 45.56 599.883 46.34L599.663 44.8H598.243V55H599.883V49.8C599.883 48.18 600.463 46.4 602.603 46.4H603.423V44.8H602.963ZM603.977 49.9C603.977 53.02 605.977 55.12 609.037 55.12C611.397 55.12 613.077 53.62 613.477 51.58H611.817C611.477 52.9 610.357 53.66 608.917 53.66C607.017 53.66 605.757 52.34 605.697 50.36V50.22H613.617C613.637 49.98 613.657 49.74 613.657 49.52C613.577 46.5 611.617 44.68 608.817 44.68C605.937 44.68 603.977 46.76 603.977 49.9ZM605.797 48.86C605.957 47.2 607.337 46.12 608.837 46.12C610.537 46.12 611.797 47.1 611.957 48.86H605.797ZM623.568 41V46.36C622.948 45.38 621.788 44.68 620.068 44.68C617.248 44.68 615.168 46.78 615.168 49.9C615.168 53.22 617.248 55.12 620.068 55.12C621.788 55.12 622.888 54.3 623.568 53.36L623.788 55H625.208V41H623.568ZM620.228 53.66C618.208 53.66 616.848 52.12 616.848 49.9C616.848 47.68 618.208 46.14 620.228 46.14C622.228 46.14 623.588 47.7 623.588 49.94C623.588 52.12 622.228 53.66 620.228 53.66ZM628.262 40.86C627.662 40.86 627.202 41.3 627.202 41.92C627.202 42.54 627.662 42.98 628.262 42.98C628.862 42.98 629.322 42.54 629.322 41.92C629.322 41.3 628.862 40.86 628.262 40.86ZM627.442 44.8V55H629.082V44.8H627.442ZM630.969 49.9C630.969 53.02 632.969 55.12 636.029 55.12C638.389 55.12 640.069 53.62 640.469 51.58H638.809C638.469 52.9 637.349 53.66 635.909 53.66C634.009 53.66 632.749 52.34 632.689 50.36V50.22H640.609C640.629 49.98 640.649 49.74 640.649 49.52C640.569 46.5 638.609 44.68 635.809 44.68C632.929 44.68 630.969 46.76 630.969 49.9ZM632.789 48.86C632.949 47.2 634.329 46.12 635.829 46.12C637.529 46.12 638.789 47.1 638.949 48.86H632.789ZM647.52 44.68C645.8 44.68 644.76 45.4 644.16 46.18L643.94 44.8H642.52V55H644.16V49.9C644.16 47.6 645.32 46.18 647.24 46.18C649.02 46.18 650 47.3 650 49.42V55H651.64V49.32C651.64 45.94 649.82 44.68 647.52 44.68ZM654.411 52.34C654.411 54.14 655.111 55 657.071 55H658.951V53.5H657.171C656.351 53.5 656.051 53.18 656.051 52.32V46.3H658.631V44.8H656.051V41.94H654.411V44.8H652.571V46.3H654.411V52.34ZM659.758 51.64C659.798 53.88 661.598 55.12 664.198 55.12C666.438 55.12 668.238 53.94 668.238 52.04C668.238 49.78 666.378 49.3 664.098 49.02C662.658 48.84 661.598 48.74 661.598 47.62C661.598 46.68 662.538 46.06 663.918 46.06C665.298 46.06 666.278 46.86 666.398 47.9H668.038C667.878 45.78 666.218 44.68 663.918 44.66C661.678 44.64 659.978 45.88 659.978 47.74C659.978 49.86 661.798 50.28 664.018 50.56C665.518 50.74 666.618 50.88 666.618 52.16C666.618 53.1 665.618 53.72 664.198 53.72C662.538 53.72 661.458 52.84 661.398 51.64H659.758Z" fill="black"/>
<path d="M317.872 41V55H319.612V41H317.872ZM327.085 44.68C325.365 44.68 324.325 45.4 323.725 46.18L323.505 44.8H322.085V55H323.725V49.9C323.725 47.6 324.885 46.18 326.805 46.18C328.585 46.18 329.565 47.3 329.565 49.42V55H331.205V49.32C331.205 45.94 329.385 44.68 327.085 44.68ZM333.976 52.34C333.976 54.14 334.676 55 336.636 55H338.516V53.5H336.736C335.916 53.5 335.616 53.18 335.616 52.32V46.3H338.196V44.8H335.616V41.94H333.976V44.8H332.136V46.3H333.976V52.34ZM340.503 40.86C339.903 40.86 339.443 41.3 339.443 41.92C339.443 42.54 339.903 42.98 340.503 42.98C341.103 42.98 341.563 42.54 341.563 41.92C341.563 41.3 341.103 40.86 340.503 40.86ZM339.683 44.8V55H341.323V44.8H339.683ZM354.949 44.68C353.129 44.68 352.029 45.52 351.409 46.62C350.829 45.32 349.609 44.68 348.189 44.68C346.609 44.68 345.749 45.46 345.209 46.2L344.989 44.8H343.569V55H345.209V49.62C345.209 47.58 346.229 46.18 347.909 46.18C349.469 46.18 350.369 47.22 350.369 49.22V55H352.009V49.54C352.009 47.46 353.049 46.18 354.749 46.18C356.289 46.18 357.169 47.22 357.169 49.22V55H358.809V49.12C358.809 45.9 357.069 44.68 354.949 44.68ZM369.953 53.5C369.533 53.5 369.273 53.26 369.273 52.76V48.36C369.273 45.98 367.773 44.68 365.173 44.68C362.713 44.68 361.093 45.86 360.853 47.86H362.493C362.693 46.82 363.653 46.14 365.093 46.14C366.693 46.14 367.633 46.94 367.633 48.26V48.96H364.633C361.953 48.96 360.533 50.1 360.533 52.14C360.533 54 362.053 55.12 364.293 55.12C366.053 55.12 367.073 54.34 367.713 53.42C367.733 54.42 368.193 55 369.553 55H370.453V53.5H369.953ZM367.633 50.84C367.633 52.54 366.453 53.72 364.413 53.72C363.053 53.72 362.193 53.04 362.193 52.04C362.193 50.88 363.013 50.34 364.473 50.34H367.633V50.84ZM372.394 52.34C372.394 54.14 373.094 55 375.054 55H376.934V53.5H375.154C374.334 53.5 374.034 53.18 374.034 52.32V46.3H376.614V44.8H374.034V41.94H372.394V44.8H370.554V46.3H372.394V52.34ZM377.487 49.9C377.487 53.02 379.487 55.12 382.547 55.12C384.907 55.12 386.587 53.62 386.987 51.58H385.327C384.987 52.9 383.867 53.66 382.427 53.66C380.527 53.66 379.267 52.34 379.207 50.36V50.22H387.127C387.147 49.98 387.167 49.74 387.167 49.52C387.087 46.5 385.127 44.68 382.327 44.68C379.447 44.68 377.487 46.76 377.487 49.9ZM379.307 48.86C379.467 47.2 380.847 46.12 382.347 46.12C384.047 46.12 385.307 47.1 385.467 48.86H379.307ZM393.912 51.64C393.952 53.88 395.752 55.12 398.352 55.12C400.592 55.12 402.392 53.94 402.392 52.04C402.392 49.78 400.532 49.3 398.252 49.02C396.812 48.84 395.752 48.74 395.752 47.62C395.752 46.68 396.692 46.06 398.072 46.06C399.452 46.06 400.432 46.86 400.552 47.9H402.192C402.032 45.78 400.372 44.68 398.072 44.66C395.832 44.64 394.132 45.88 394.132 47.74C394.132 49.86 395.952 50.28 398.172 50.56C399.672 50.74 400.772 50.88 400.772 52.16C400.772 53.1 399.772 53.72 398.352 53.72C396.692 53.72 395.612 52.84 395.552 51.64H393.912ZM408.953 55.12C411.933 55.12 414.013 53 414.013 49.9C414.013 46.8 411.933 44.68 408.953 44.68C405.973 44.68 403.893 46.8 403.893 49.9C403.893 53 405.973 55.12 408.953 55.12ZM408.953 53.66C406.933 53.66 405.573 52.08 405.573 49.9C405.573 47.72 406.933 46.14 408.953 46.14C410.973 46.14 412.333 47.72 412.333 49.9C412.333 52.08 410.973 53.66 408.953 53.66ZM424.933 53.5C424.513 53.5 424.253 53.26 424.253 52.76V48.36C424.253 45.98 422.753 44.68 420.153 44.68C417.693 44.68 416.073 45.86 415.833 47.86H417.473C417.673 46.82 418.633 46.14 420.073 46.14C421.673 46.14 422.613 46.94 422.613 48.26V48.96H419.613C416.933 48.96 415.513 50.1 415.513 52.14C415.513 54 417.033 55.12 419.273 55.12C421.033 55.12 422.053 54.34 422.693 53.42C422.713 54.42 423.173 55 424.533 55H425.433V53.5H424.933ZM422.613 50.84C422.613 52.54 421.433 53.72 419.393 53.72C418.033 53.72 417.173 53.04 417.173 52.04C417.173 50.88 417.993 50.34 419.453 50.34H422.613V50.84ZM431.834 44.68C430.114 44.68 429.014 45.5 428.334 46.44L428.114 44.8H426.694V59H428.334V53.44C428.954 54.42 430.114 55.12 431.834 55.12C434.654 55.12 436.734 53.02 436.734 49.9C436.734 46.58 434.654 44.68 431.834 44.68ZM431.674 53.66C429.674 53.66 428.314 52.1 428.314 49.86C428.314 47.68 429.674 46.14 431.674 46.14C433.694 46.14 435.054 47.68 435.054 49.9C435.054 52.12 433.694 53.66 431.674 53.66Z" fill="black"/>
<path d="M721.651 47C721.651 51.28 724.271 54.12 728.331 54.12C731.451 54.12 733.651 52.32 734.171 49.42H732.431C731.911 51.38 730.411 52.52 728.251 52.52C725.311 52.52 723.431 50.22 723.431 47C723.431 43.76 725.311 41.48 728.251 41.48C730.371 41.48 731.931 42.62 732.451 44.58H734.191C733.671 41.68 731.431 39.88 728.331 39.88C724.271 39.88 721.651 42.76 721.651 47ZM740.83 54.12C743.81 54.12 745.89 52 745.89 48.9C745.89 45.8 743.81 43.68 740.83 43.68C737.85 43.68 735.77 45.8 735.77 48.9C735.77 52 737.85 54.12 740.83 54.12ZM740.83 52.66C738.81 52.66 737.45 51.08 737.45 48.9C737.45 46.72 738.81 45.14 740.83 45.14C742.85 45.14 744.21 46.72 744.21 48.9C744.21 51.08 742.85 52.66 740.83 52.66ZM752.77 43.68C751.05 43.68 750.01 44.4 749.41 45.18L749.19 43.8H747.77V54H749.41V48.9C749.41 46.6 750.57 45.18 752.49 45.18C754.27 45.18 755.25 46.3 755.25 48.42V54H756.89V48.32C756.89 44.94 755.07 43.68 752.77 43.68ZM758.621 50.64C758.661 52.88 760.461 54.12 763.061 54.12C765.301 54.12 767.101 52.94 767.101 51.04C767.101 48.78 765.241 48.3 762.961 48.02C761.521 47.84 760.461 47.74 760.461 46.62C760.461 45.68 761.401 45.06 762.781 45.06C764.161 45.06 765.141 45.86 765.261 46.9H766.901C766.741 44.78 765.081 43.68 762.781 43.66C760.541 43.64 758.841 44.88 758.841 46.74C758.841 48.86 760.661 49.28 762.881 49.56C764.381 49.74 765.481 49.88 765.481 51.16C765.481 52.1 764.481 52.72 763.061 52.72C761.401 52.72 760.321 51.84 760.261 50.64H758.621ZM769.782 39.86C769.182 39.86 768.722 40.3 768.722 40.92C768.722 41.54 769.182 41.98 769.782 41.98C770.382 41.98 770.842 41.54 770.842 40.92C770.842 40.3 770.382 39.86 769.782 39.86ZM768.962 43.8V54H770.602V43.8H768.962ZM777.549 54.12C780.529 54.12 782.609 52 782.609 48.9C782.609 45.8 780.529 43.68 777.549 43.68C774.569 43.68 772.489 45.8 772.489 48.9C772.489 52 774.569 54.12 777.549 54.12ZM777.549 52.66C775.529 52.66 774.169 51.08 774.169 48.9C774.169 46.72 775.529 45.14 777.549 45.14C779.569 45.14 780.929 46.72 780.929 48.9C780.929 51.08 779.569 52.66 777.549 52.66ZM791.629 43.8V48.9C791.629 51.2 790.509 52.62 788.649 52.62C786.949 52.62 785.989 51.5 785.989 49.38V43.8H784.349V49.48C784.349 52.86 786.129 54.12 788.369 54.12C790.049 54.12 791.029 53.4 791.629 52.64L791.849 54H793.269V43.8H791.629ZM795.145 50.64C795.185 52.88 796.985 54.12 799.585 54.12C801.825 54.12 803.625 52.94 803.625 51.04C803.625 48.78 801.765 48.3 799.485 48.02C798.045 47.84 796.985 47.74 796.985 46.62C796.985 45.68 797.925 45.06 799.305 45.06C800.685 45.06 801.665 45.86 801.785 46.9H803.425C803.265 44.78 801.605 43.68 799.305 43.66C797.065 43.64 795.365 44.88 795.365 46.74C795.365 48.86 797.185 49.28 799.405 49.56C800.905 49.74 802.005 49.88 802.005 51.16C802.005 52.1 801.005 52.72 799.585 52.72C797.925 52.72 796.845 51.84 796.785 50.64H795.145ZM810.96 40V54H816.06C819.38 54 821.14 52.5 821.14 50.14C821.14 48.08 819.84 47.14 818.06 46.8C819.68 46.38 820.56 45.26 820.56 43.62C820.56 41.36 818.9 40 815.92 40H810.96ZM812.7 41.58H816C817.82 41.58 818.82 42.42 818.82 43.82C818.82 45.24 817.8 46.08 816 46.08H812.7V41.58ZM812.7 47.64H816.06C818.14 47.64 819.36 48.5 819.36 50.08C819.36 51.52 818.22 52.42 816.06 52.42H812.7V47.64ZM827.901 43.8C826.081 43.8 825.301 44.56 824.821 45.34L824.601 43.8H823.181V54H824.821V48.8C824.821 47.18 825.401 45.4 827.541 45.4H828.361V43.8H827.901ZM838.412 52.5C837.992 52.5 837.732 52.26 837.732 51.76V47.36C837.732 44.98 836.232 43.68 833.632 43.68C831.172 43.68 829.552 44.86 829.312 46.86H830.952C831.152 45.82 832.112 45.14 833.552 45.14C835.152 45.14 836.092 45.94 836.092 47.26V47.96H833.092C830.412 47.96 828.992 49.1 828.992 51.14C828.992 53 830.512 54.12 832.752 54.12C834.512 54.12 835.532 53.34 836.172 52.42C836.192 53.42 836.652 54 838.012 54H838.912V52.5H838.412ZM836.092 49.84C836.092 51.54 834.912 52.72 832.872 52.72C831.512 52.72 830.652 52.04 830.652 51.04C830.652 49.88 831.472 49.34 832.932 49.34H836.092V49.84ZM845.173 43.68C843.453 43.68 842.413 44.4 841.813 45.18L841.593 43.8H840.173V54H841.813V48.9C841.813 46.6 842.973 45.18 844.893 45.18C846.673 45.18 847.653 46.3 847.653 48.42V54H849.293V48.32C849.293 44.94 847.473 43.68 845.173 43.68ZM859.424 40V45.36C858.804 44.38 857.644 43.68 855.924 43.68C853.104 43.68 851.024 45.78 851.024 48.9C851.024 52.22 853.104 54.12 855.924 54.12C857.644 54.12 858.744 53.3 859.424 52.36L859.644 54H861.064V40H859.424ZM856.084 52.66C854.064 52.66 852.704 51.12 852.704 48.9C852.704 46.68 854.064 45.14 856.084 45.14C858.084 45.14 859.444 46.7 859.444 48.94C859.444 51.12 858.084 52.66 856.084 52.66ZM864.118 39.86C863.518 39.86 863.058 40.3 863.058 40.92C863.058 41.54 863.518 41.98 864.118 41.98C864.718 41.98 865.178 41.54 865.178 40.92C865.178 40.3 864.718 39.86 864.118 39.86ZM863.298 43.8V54H864.938V43.8H863.298ZM872.184 43.68C870.464 43.68 869.424 44.4 868.824 45.18L868.604 43.8H867.184V54H868.824V48.9C868.824 46.6 869.984 45.18 871.904 45.18C873.684 45.18 874.664 46.3 874.664 48.42V54H876.304V48.32C876.304 44.94 874.484 43.68 872.184 43.68ZM886.655 43.8L886.435 45.56C885.795 44.42 884.655 43.68 882.935 43.68C880.115 43.68 878.035 45.78 878.035 48.9C878.035 52.22 880.115 54.12 882.935 54.12C884.655 54.12 885.755 53.4 886.435 52.24V53.44C886.435 55.66 885.275 56.66 883.135 56.66C881.435 56.66 880.295 55.94 880.015 54.66H878.335C878.595 56.9 880.415 58.12 883.015 58.12C886.515 58.12 888.075 56.44 888.075 53.5V43.8H886.655ZM883.095 52.66C881.075 52.66 879.715 51.12 879.715 48.9C879.715 46.68 881.075 45.14 883.095 45.14C885.095 45.14 886.455 46.7 886.455 48.94C886.455 51.12 885.095 52.66 883.095 52.66Z" fill="black"/>
<path d="M938.774 49.42C938.874 52.18 940.914 54.12 944.254 54.12C947.194 54.12 949.234 52.42 949.234 50C949.234 47.28 946.894 46.52 944.614 46.14C942.514 45.78 940.814 45.44 940.814 43.76C940.814 42.26 942.034 41.44 943.854 41.44C945.734 41.44 947.094 42.52 947.294 44.14H949.014C948.854 41.62 946.854 39.86 943.854 39.86C941.014 39.86 939.074 41.48 939.074 43.86C939.074 46.58 941.394 47.32 943.654 47.7C945.774 48.06 947.494 48.42 947.494 50.16C947.494 51.68 946.154 52.54 944.274 52.54C942.134 52.54 940.634 51.3 940.494 49.42H938.774ZM958.342 43.8V48.9C958.342 51.2 957.222 52.62 955.362 52.62C953.662 52.62 952.702 51.5 952.702 49.38V43.8H951.062V49.48C951.062 52.86 952.842 54.12 955.082 54.12C956.762 54.12 957.742 53.4 958.342 52.64L958.562 54H959.982V43.8H958.342ZM961.858 50.64C961.898 52.88 963.698 54.12 966.298 54.12C968.538 54.12 970.338 52.94 970.338 51.04C970.338 48.78 968.478 48.3 966.198 48.02C964.758 47.84 963.698 47.74 963.698 46.62C963.698 45.68 964.638 45.06 966.018 45.06C967.398 45.06 968.378 45.86 968.498 46.9H970.138C969.978 44.78 968.318 43.68 966.018 43.66C963.778 43.64 962.078 44.88 962.078 46.74C962.078 48.86 963.898 49.28 966.118 49.56C967.618 49.74 968.718 49.88 968.718 51.16C968.718 52.1 967.718 52.72 966.298 52.72C964.638 52.72 963.558 51.84 963.498 50.64H961.858ZM972.878 51.34C972.878 53.14 973.578 54 975.538 54H977.418V52.5H975.638C974.818 52.5 974.518 52.18 974.518 51.32V45.3H977.098V43.8H974.518V40.94H972.878V43.8H971.038V45.3H972.878V51.34ZM987.469 52.5C987.049 52.5 986.789 52.26 986.789 51.76V47.36C986.789 44.98 985.289 43.68 982.689 43.68C980.229 43.68 978.609 44.86 978.369 46.86H980.009C980.209 45.82 981.169 45.14 982.609 45.14C984.209 45.14 985.149 45.94 985.149 47.26V47.96H982.149C979.469 47.96 978.049 49.1 978.049 51.14C978.049 53 979.569 54.12 981.809 54.12C983.569 54.12 984.589 53.34 985.229 52.42C985.249 53.42 985.709 54 987.069 54H987.969V52.5H987.469ZM985.149 49.84C985.149 51.54 983.969 52.72 981.929 52.72C980.569 52.72 979.709 52.04 979.709 51.04C979.709 49.88 980.529 49.34 981.989 49.34H985.149V49.84ZM990.049 39.86C989.449 39.86 988.989 40.3 988.989 40.92C988.989 41.54 989.449 41.98 990.049 41.98C990.649 41.98 991.109 41.54 991.109 40.92C991.109 40.3 990.649 39.86 990.049 39.86ZM989.229 43.8V54H990.869V43.8H989.229ZM998.116 43.68C996.396 43.68 995.356 44.4 994.756 45.18L994.536 43.8H993.116V54H994.756V48.9C994.756 46.6 995.916 45.18 997.836 45.18C999.616 45.18 1000.6 46.3 1000.6 48.42V54H1002.24V48.32C1002.24 44.94 1000.42 43.68 998.116 43.68ZM1013.37 52.5C1012.95 52.5 1012.69 52.26 1012.69 51.76V47.36C1012.69 44.98 1011.19 43.68 1008.59 43.68C1006.13 43.68 1004.51 44.86 1004.27 46.86H1005.91C1006.11 45.82 1007.07 45.14 1008.51 45.14C1010.11 45.14 1011.05 45.94 1011.05 47.26V47.96H1008.05C1005.37 47.96 1003.95 49.1 1003.95 51.14C1003.95 53 1005.47 54.12 1007.71 54.12C1009.47 54.12 1010.49 53.34 1011.13 52.42C1011.15 53.42 1011.61 54 1012.97 54H1013.87V52.5H1013.37ZM1011.05 49.84C1011.05 51.54 1009.87 52.72 1007.83 52.72C1006.47 52.72 1005.61 52.04 1005.61 51.04C1005.61 49.88 1006.43 49.34 1007.89 49.34H1011.05V49.84ZM1020.27 43.68C1018.55 43.68 1017.45 44.5 1016.77 45.44V40H1015.13V54H1016.55L1016.77 52.44C1017.39 53.42 1018.55 54.12 1020.27 54.12C1023.09 54.12 1025.17 52.02 1025.17 48.9C1025.17 45.58 1023.09 43.68 1020.27 43.68ZM1020.11 52.66C1018.11 52.66 1016.75 51.1 1016.75 48.86C1016.75 46.68 1018.11 45.14 1020.11 45.14C1022.13 45.14 1023.49 46.68 1023.49 48.9C1023.49 51.12 1022.13 52.66 1020.11 52.66ZM1027.04 40V54H1028.68V40H1027.04ZM1030.57 48.9C1030.57 52.02 1032.57 54.12 1035.63 54.12C1037.99 54.12 1039.67 52.62 1040.07 50.58H1038.41C1038.07 51.9 1036.95 52.66 1035.51 52.66C1033.61 52.66 1032.35 51.34 1032.29 49.36V49.22H1040.21C1040.23 48.98 1040.25 48.74 1040.25 48.52C1040.17 45.5 1038.21 43.68 1035.41 43.68C1032.53 43.68 1030.57 45.76 1030.57 48.9ZM1032.39 47.86C1032.55 46.2 1033.93 45.12 1035.43 45.12C1037.13 45.12 1038.39 46.1 1038.55 47.86H1032.39ZM1047.59 40V54H1049.33V48.62H1052.97C1055.77 48.62 1057.61 46.92 1057.61 44.3C1057.61 41.68 1055.77 40 1052.97 40H1047.59ZM1049.33 41.6H1052.83C1054.67 41.6 1055.83 42.64 1055.83 44.3C1055.83 45.96 1054.65 47.02 1052.81 47.02H1049.33V41.6ZM1067.66 52.5C1067.24 52.5 1066.98 52.26 1066.98 51.76V47.36C1066.98 44.98 1065.48 43.68 1062.88 43.68C1060.42 43.68 1058.8 44.86 1058.56 46.86H1060.2C1060.4 45.82 1061.36 45.14 1062.8 45.14C1064.4 45.14 1065.34 45.94 1065.34 47.26V47.96H1062.34C1059.66 47.96 1058.24 49.1 1058.24 51.14C1058.24 53 1059.76 54.12 1062 54.12C1063.76 54.12 1064.78 53.34 1065.42 52.42C1065.44 53.42 1065.9 54 1067.26 54H1068.16V52.5H1067.66ZM1065.34 49.84C1065.34 51.54 1064.16 52.72 1062.12 52.72C1060.76 52.72 1059.9 52.04 1059.9 51.04C1059.9 49.88 1060.72 49.34 1062.18 49.34H1065.34V49.84ZM1078.52 50.48H1076.88C1076.58 51.82 1075.52 52.66 1074.02 52.66C1072.06 52.66 1070.74 51.1 1070.74 48.88C1070.74 46.66 1072.06 45.14 1074.02 45.14C1075.48 45.14 1076.54 45.98 1076.86 47.28H1078.52C1078.12 45.08 1076.52 43.68 1074.08 43.68C1071.08 43.68 1069.06 45.76 1069.06 48.88C1069.06 52 1071.04 54.12 1074.02 54.12C1076.46 54.12 1078.1 52.72 1078.52 50.48ZM1080.42 40V54H1082.06V51.3L1084.1 49.16L1087.5 54H1089.48L1085.28 47.98L1089.2 43.8H1087.24L1082.06 49.28V40H1080.42ZM1099.5 52.5C1099.08 52.5 1098.82 52.26 1098.82 51.76V47.36C1098.82 44.98 1097.32 43.68 1094.72 43.68C1092.26 43.68 1090.64 44.86 1090.4 46.86H1092.04C1092.24 45.82 1093.2 45.14 1094.64 45.14C1096.24 45.14 1097.18 45.94 1097.18 47.26V47.96H1094.18C1091.5 47.96 1090.08 49.1 1090.08 51.14C1090.08 53 1091.6 54.12 1093.84 54.12C1095.6 54.12 1096.62 53.34 1097.26 52.42C1097.28 53.42 1097.74 54 1099.1 54H1100V52.5H1099.5ZM1097.18 49.84C1097.18 51.54 1096 52.72 1093.96 52.72C1092.6 52.72 1091.74 52.04 1091.74 51.04C1091.74 49.88 1092.56 49.34 1094.02 49.34H1097.18V49.84ZM1109.52 43.8L1109.3 45.56C1108.66 44.42 1107.52 43.68 1105.8 43.68C1102.98 43.68 1100.9 45.78 1100.9 48.9C1100.9 52.22 1102.98 54.12 1105.8 54.12C1107.52 54.12 1108.62 53.4 1109.3 52.24V53.44C1109.3 55.66 1108.14 56.66 1106 56.66C1104.3 56.66 1103.16 55.94 1102.88 54.66H1101.2C1101.46 56.9 1103.28 58.12 1105.88 58.12C1109.38 58.12 1110.94 56.44 1110.94 53.5V43.8H1109.52ZM1105.96 52.66C1103.94 52.66 1102.58 51.12 1102.58 48.9C1102.58 46.68 1103.94 45.14 1105.96 45.14C1107.96 45.14 1109.32 46.7 1109.32 48.94C1109.32 51.12 1107.96 52.66 1105.96 52.66ZM1113.99 39.86C1113.39 39.86 1112.93 40.3 1112.93 40.92C1112.93 41.54 1113.39 41.98 1113.99 41.98C1114.59 41.98 1115.05 41.54 1115.05 40.92C1115.05 40.3 1114.59 39.86 1113.99 39.86ZM1113.17 43.8V54H1114.81V43.8H1113.17ZM1122.06 43.68C1120.34 43.68 1119.3 44.4 1118.7 45.18L1118.48 43.8H1117.06V54H1118.7V48.9C1118.7 46.6 1119.86 45.18 1121.78 45.18C1123.56 45.18 1124.54 46.3 1124.54 48.42V54H1126.18V48.32C1126.18 44.94 1124.36 43.68 1122.06 43.68ZM1136.53 43.8L1136.31 45.56C1135.67 44.42 1134.53 43.68 1132.81 43.68C1129.99 43.68 1127.91 45.78 1127.91 48.9C1127.91 52.22 1129.99 54.12 1132.81 54.12C1134.53 54.12 1135.63 53.4 1136.31 52.24V53.44C1136.31 55.66 1135.15 56.66 1133.01 56.66C1131.31 56.66 1130.17 55.94 1129.89 54.66H1128.21C1128.47 56.9 1130.29 58.12 1132.89 58.12C1136.39 58.12 1137.95 56.44 1137.95 53.5V43.8H1136.53ZM1132.97 52.66C1130.95 52.66 1129.59 51.12 1129.59 48.9C1129.59 46.68 1130.95 45.14 1132.97 45.14C1134.97 45.14 1136.33 46.7 1136.33 48.94C1136.33 51.12 1134.97 52.66 1132.97 52.66Z" fill="black"/>
<path d="M372 131L382.507 141.705" stroke="black" stroke-width="2" stroke-linecap="round"/>
<path d="M382.507 131L372 141.705" stroke="black" stroke-width="2" stroke-linecap="round"/>
<path d="M372 398L382.507 408.705" stroke="black" stroke-width="2" stroke-linecap="round"/>
<path d="M382.507 398L372 408.705" stroke="black" stroke-width="2" stroke-linecap="round"/>
<path d="M372 576L382.507 586.705" stroke="black" stroke-width="2" stroke-linecap="round"/>
<path d="M382.507 576L372 586.705" stroke="black" stroke-width="2" stroke-linecap="round"/>
<path d="M588 576L598.507 586.705" stroke="black" stroke-width="2" stroke-linecap="round"/>
<path d="M598.507 576L588 586.705" stroke="black" stroke-width="2" stroke-linecap="round"/>
<path d="M800 398L810.507 408.705" stroke="black" stroke-width="2" stroke-linecap="round"/>
<path d="M810.507 398L800 408.705" stroke="black" stroke-width="2" stroke-linecap="round"/>
<path d="M1038 576L1048.51 586.705" stroke="black" stroke-width="2" stroke-linecap="round"/>
<path d="M1048.51 576L1038 586.705" stroke="black" stroke-width="2" stroke-linecap="round"/>
<path d="M800 576L810.507 586.705" stroke="black" stroke-width="2" stroke-linecap="round"/>
<path d="M810.507 576L800 586.705" stroke="black" stroke-width="2" stroke-linecap="round"/>
<path d="M800 487L810.507 497.705" stroke="black" stroke-width="2" stroke-linecap="round"/>
<path d="M810.507 487L800 497.705" stroke="black" stroke-width="2" stroke-linecap="round"/>
<path d="M588 398L598.507 408.705" stroke="black" stroke-width="2" stroke-linecap="round"/>
<path d="M598.507 398L588 408.705" stroke="black" stroke-width="2" stroke-linecap="round"/>
<path d="M588 487L598.507 497.705" stroke="black" stroke-width="2" stroke-linecap="round"/>
<path d="M598.507 487L588 497.705" stroke="black" stroke-width="2" stroke-linecap="round"/>
<path d="M372 487L382.507 497.705" stroke="black" stroke-width="2" stroke-linecap="round"/>
<path d="M382.507 487L372 497.705" stroke="black" stroke-width="2" stroke-linecap="round"/>
<path d="M372 309L382.507 319.705" stroke="black" stroke-width="2" stroke-linecap="round"/>
<path d="M382.507 309L372 319.705" stroke="black" stroke-width="2" stroke-linecap="round"/>
<path d="M372 220L382.507 230.705" stroke="black" stroke-width="2" stroke-linecap="round"/>
<path d="M382.507 220L372 230.705" stroke="black" stroke-width="2" stroke-linecap="round"/>
</svg>
